<?xml version="1.0" encoding="UTF-8" standalone="no"?>
<!-- Created with Inkscape (http://www.inkscape.org/) -->

<svg
   width="10000"
   height="10000"
   viewBox="0 0 10000 10000"
   version="1.1"
   id="svg1"
   xmlns="http://www.w3.org/2000/svg"
   xmlns:svg="http://www.w3.org/2000/svg">
  <defs
     id="defs1" />
  <g
     id="layer1">
    <path
       style="fill:#4dd0e1;fill-opacity:1"
       id="path8"
       d="m 979.16481,300.33412 -132.42496,0 66.21248,-114.68339 z"
       transform="matrix(-0.6041157,0,0,-0.6041157,1506.0058,1074.8675)" />
    <g
       id="g12">
      <rect
         style="fill:#ff0000;stroke-width:1.16258"
         id="rect1"
         width="100"
         height="500"
         x="904.47699"
         y="373.43094" />
      <path
         style="fill:#ff0000"
         id="path1"
         d="m 979.16481,300.33412 -132.42496,0 66.21248,-114.68339 z"
         transform="matrix(0.75514462,0,0,0.75514462,265.06595,146.63525)" />
      <rect
         style="fill:#f9f9f9;stroke-width:1.01883"
         id="rect2"
         width="80"
         height="480"
         x="914.47699"
         y="383.43094" />
      <path
         style="fill:#f9f9f9"
         id="path2"
         d="m 979.16481,300.33412 -132.42496,0 66.21248,-114.68339 z"
         transform="matrix(0.6041157,0,0,0.6041157,402.94815,191.99438)" />
      <rect
         style="fill:#ff0000;stroke-width:1.08475"
         id="rect3"
         width="10"
         height="120"
         x="984.47699"
         y="563.43091" />
      <rect
         style="fill:#ff0000;stroke-width:1.08475"
         id="rect4"
         width="10"
         height="120"
         x="914.47699"
         y="563.43103" />
      <rect
         style="fill:#ff0000;fill-opacity:1;stroke-width:1.60283"
         id="rect9"
         width="30"
         height="60"
         x="939.47699"
         y="743.43103" />
      <rect
         style="fill:#ff0000;fill-opacity:1;stroke-width:1.60283"
         id="rect11"
         width="30"
         height="60"
         x="939.47699"
         y="443.431" />
      <rect
         style="fill:#ff0000;fill-opacity:1;stroke-width:1.01094"
         id="rect12"
         width="80"
         height="20"
         x="914.47699"
         y="873.43091" />
    </g>
    <rect
       style="fill:#212121;fill-opacity:1;stroke-width:9.15293"
       id="rect13"
       width="10000"
       height="10000"
       x="0"
       y="0" />
  </g>
</svg>
